<?xml version="1.0" encoding="UTF-8"?><svg id="Layer_2" xmlns="http://www.w3.org/2000/svg" viewBox="0 0 323.98 149.72"><defs><style>.cls-1{fill:none;stroke:#155cfb;stroke-linecap:round;stroke-linejoin:round;stroke-width:5.49px;}.cls-2{fill:#155cfb;}</style></defs><circle class="cls-2" cx="40.01" cy="43.53" r="3.03"/><circle class="cls-2" cx="77.72" cy="43.53" r="3.03"/><circle class="cls-2" cx="50.17" cy="77.96" r="4.22"/><circle class="cls-2" cx="67.56" cy="77.96" r="4.22"/><path class="cls-1" d="m78.12,19.13H16.32c-4.22,0-7.97,2.52-9.34,6.28l-3.74,10.22c-2,5.46,2.31,11.15,8.44,11.15h5.24c3.25,0,6.24-1.66,7.81-4.34l5.17-8.82c1.72-2.94,5-4.76,8.57-4.76"/><path class="cls-1" d="m39.62,19.13h61.8c4.22,0,7.97,2.52,9.34,6.28l3.74,10.22c2,5.46-2.31,11.15-8.44,11.15h-5.24c-3.25,0-6.24-1.66-7.81-4.34l-5.17-8.82c-1.72-2.94-5-4.76-8.57-4.76"/><path class="cls-2" d="m38.89,1.95l-8.04,16.73h22.28L45.09,1.95c-1.25-2.6-4.95-2.6-6.2,0Z"/><path class="cls-2" d="m72.65,1.95l-8.04,16.73h22.28L78.85,1.95c-1.25-2.6-4.95-2.6-6.2,0Z"/><path class="cls-1" d="m85.95,88.56c0-14.96-12.12-27.08-27.08-27.08h0c-14.96,0-27.08,12.12-27.08,27.08"/><circle class="cls-2" cx="47.69" cy="112.4" r="2.87"/><circle class="cls-2" cx="69.84" cy="112.4" r="2.87"/><line class="cls-1" x1="79.38" y1="121.55" x2="89.34" y2="118.9"/><line class="cls-1" x1="89.34" y1="130.46" x2="79.38" y2="127.8"/><line class="cls-1" x1="38.36" y1="127.8" x2="28.39" y2="130.46"/><line class="cls-1" x1="28.39" y1="118.9" x2="38.36" y2="121.55"/><path class="cls-1" d="m92.09,146.97c9.12.04,16.34-7.69,15.68-16.78l-3.21-44.59c-.44-6.22-8.39-8.51-12.08-3.49h0c-7.46,10.17-19.31,16.19-31.92,16.22h-3.39c-12.61-.04-24.46-6.05-31.92-16.22h0c-3.69-5.02-11.64-2.73-12.08,3.49l-3.19,44.3c-.65,9.04,6.49,16.74,15.55,16.78l66.56.29Z"/><path class="cls-1" d="m58.92,126.85c.05,3.43-2.69,6.24-6.11,6.29-3.43.05-6.24-2.69-6.29-6.11-.03-2.07.96-3.92,2.51-5.07"/><path class="cls-1" d="m58.85,126.85c-.05,3.43,2.69,6.24,6.11,6.29,3.43.05,6.24-2.69,6.29-6.11.03-2.07-.96-3.92-2.51-5.07"/><path class="cls-1" d="m52.33,20.36v17.12c0,8.62-6.98,15.6-15.6,15.6h-3.57c-2.42,0-4.38,1.96-4.38,4.38h0c0,6.54-5.3,11.84-11.84,11.84h-2.16"/><path class="cls-1" d="m65.41,20.36v17.12c0,8.62,6.98,15.6,15.6,15.6h3.57c2.42,0,4.38,1.96,4.38,4.38h0c0,6.54,5.3,11.84,11.84,11.84h2.16"/><path class="cls-2" d="m19.94,90.54l-.64,8.99c-.07.92.66,1.71,1.59,1.71h11.43c1.6,0,2.21-2.1.84-2.94-3.86-2.36-7.38-5.28-10.43-8.69-.95-1.06-2.7-.5-2.8.92Z"/><path class="cls-2" d="m95.47,89.61c-3.05,3.41-6.58,6.33-10.43,8.69-1.36.83-.75,2.94.85,2.94h11.43c.92,0,1.65-.78,1.59-1.71l-.64-8.99c-.1-1.42-1.85-1.98-2.8-.92Z"/><line class="cls-1" x1="106.7" y1="115.33" x2="102" y2="49.21"/><line class="cls-1" x1="11.04" y1="115.33" x2="15.75" y2="49.21"/><path class="cls-2" d="m176.01,92.82c-3.93,5.17-9.99,8.23-16.42,8.23-11.46,0-20.79-9.55-20.79-21.28s9.33-21.28,20.79-21.28c3.37,0,6.59.8,9.56,2.38,2.55,1.36,4.83,3.27,6.63,5.57.17.22.12.54-.1.7l-6.88,5.04c-.21.15-.51.12-.68-.07-2.16-2.53-5.22-3.96-8.54-3.96-6.27,0-11.37,5.22-11.37,11.62s5.1,11.63,11.37,11.63c3.4,0,6.62-1.57,8.77-4.23.16-.2.46-.23.67-.08l6.87,5.03c.23.17.28.49.11.71Z"/><path class="cls-2" d="m212.68,69.76v29.65c0,.27-.22.49-.49.49h-8.56c-.27,0-.49-.22-.49-.49v-.45c0-.19-.2-.3-.37-.21-2.45,1.39-5.22,2.12-8.07,2.12-8.97,0-16.26-7.19-16.26-16.04s7.3-16.04,16.26-16.04c2.84,0,5.62.73,8.07,2.11.16.09.37-.02.37-.21v-.93c0-.27.22-.49.49-.49h8.56c.27,0,.49.22.49.49Zm-9.54,15.07c0-4.06-2.86-7.36-6.97-7.36s-7.46,3.3-7.46,7.36,3.35,7.36,7.46,7.36,6.97-3.3,6.97-7.36Z"/><path class="cls-2" d="m234.87,92.52l-1.1,7.25c-.03.23-.22.4-.45.41-1.05.06-3.86.22-4.71.22-.07,0-.12,0-.17,0-5.2-.27-7.95-2.94-7.95-7.72v-14.71c0-.27-.22-.49-.49-.49h-3.18c-.27,0-.49-.22-.49-.49v-7.25c0-.27.22-.49.49-.49h3.18c.27,0,.49-.22.49-.49v-8.4c0-.27.22-.49.49-.49h8.56c.27,0,.49.22.49.49v8.4c0,.27.22.49.49.49h3.18c.27,0,.49.22.49.49v7.25c0,.27-.22.49-.49.49h-3.18c-.27,0-.49.22-.49.49,0,2.54,0,10.06,0,10.14v.21c-.04.93-.08,2.21.67,2.97.44.45,1.12.67,2.03.67h1.67c.3,0,.53.27.48.56Z"/><path class="cls-2" d="m176.01,141.49c-3.93,5.17-9.99,8.23-16.42,8.23-11.46,0-20.79-9.55-20.79-21.28s9.33-21.28,20.79-21.28c3.37,0,6.59.8,9.56,2.38,2.55,1.36,4.83,3.27,6.63,5.57.17.22.12.54-.1.7l-6.88,5.04c-.21.15-.51.12-.68-.07-2.16-2.53-5.22-3.96-8.54-3.96-6.27,0-11.37,5.22-11.37,11.62s5.1,11.63,11.37,11.63c3.4,0,6.62-1.57,8.77-4.23.16-.2.46-.23.67-.08l6.87,5.03c.23.17.28.49.11.71Z"/><path class="cls-2" d="m210.96,133.51c0,8.84-7.3,16.04-16.26,16.04s-16.26-7.2-16.26-16.04,7.3-16.04,16.26-16.04,16.26,7.2,16.26,16.04Zm-9.17,0c0-3.86-3.18-6.99-7.09-6.99s-7.09,3.14-7.09,6.99,3.18,6.99,7.09,6.99,7.09-3.14,7.09-6.99Z"/><path class="cls-2" d="m255.8,118.57l-7.94,29.66c-.06.21-.25.36-.47.36h-8.94c-.21,0-.39-.13-.46-.32l-3.65-10.23c-.15-.43-.77-.43-.92,0l-3.65,10.23c-.07.19-.25.32-.46.32h-8.94c-.22,0-.42-.15-.47-.36l-7.94-29.66c-.08-.31.15-.62.47-.62h8.53c.23,0,.43.16.48.39l3.1,15.05c.1.49.77.53.94.06l5.42-15.18c.07-.19.25-.32.46-.32h5.04c.21,0,.39.13.46.32l5.49,15.37c.15.41.74.37.83-.06l3.14-15.25c.05-.23.25-.39.48-.39h8.53c.32,0,.56.31.47.62Z"/><path class="cls-2" d="m260.88,145.58c0-2.14,1.44-3.64,3.47-3.64s3.41,1.5,3.41,3.64-1.33,3.64-3.47,3.64c-2.02,0-3.41-1.56-3.41-3.64Z"/><path class="cls-2" d="m290.68,141.18l-1.1,7.25c-.03.23-.22.4-.45.41-1.05.06-3.86.22-4.71.22-.07,0-.12,0-.17,0-5.2-.27-7.95-2.94-7.95-7.72v-14.71c0-.27-.22-.49-.49-.49h-3.18c-.27,0-.49-.22-.49-.49v-7.25c0-.27.22-.49.49-.49h3.18c.27,0,.49-.22.49-.49v-8.4c0-.27.22-.49.49-.49h8.56c.27,0,.49.22.49.49v8.4c0,.27.22.49.49.49h3.18c.27,0,.49.22.49.49v7.25c0,.27-.22.49-.49.49h-3.18c-.27,0-.49.22-.49.49,0,2.54,0,10.06,0,10.14v.21c-.04.93-.08,2.21.67,2.97.44.45,1.12.67,2.03.67h1.67c.3,0,.53.27.48.56Z"/><path class="cls-2" d="m323.95,118.61l-10.58,29.65c-.07.19-.25.32-.46.32h-8.95c-.21,0-.39-.13-.46-.32l-10.58-29.65c-.11-.32.12-.65.46-.65h8.53c.21,0,.39.13.46.32l6.07,17.01,6.07-17.01c.07-.19.25-.32.46-.32h8.53c.34,0,.57.33.46.65Z"/></svg>