<?xml version="1.0" encoding="UTF-8"?><svg id="Layer_3" xmlns="http://www.w3.org/2000/svg" viewBox="0 0 32.87 22.79"><defs><style>.cls-1{fill:none;}.cls-1,.cls-2{stroke:#155cfb;stroke-linecap:round;stroke-miterlimit:10;stroke-width:2px;}.cls-3{fill:#155cfb;}.cls-2{fill:#fff;}</style></defs><path class="cls-1" d="m29.99,7.25S23.87,1,16.33,1c-7.54,0-13.65,6.25-13.65,6.25,0,0,6.11,6.44,13.65,6.44,7.54,0,13.65-6.44,13.65-6.44Z"/><circle class="cls-1" cx="16.31" cy="7.35" r="6.35"/><circle class="cls-3" cx="16.31" cy="7.35" r="3.29"/><line class="cls-1" x1="1" y1="16.03" x2="3.87" y2="12.77"/><line class="cls-1" x1="5.24" y1="18.61" x2="7.91" y2="15.18"/><line class="cls-1" x1="10.7" y1="20.82" x2="11.95" y2="16.66"/><line class="cls-1" x1="31.87" y1="16.15" x2="29" y2="12.89"/><line class="cls-1" x1="27.63" y1="18.73" x2="24.96" y2="15.3"/><line class="cls-1" x1="22.18" y1="20.93" x2="20.92" y2="16.77"/><line class="cls-1" x1="16.43" y1="21.79" x2="16.43" y2="17.44"/><path class="cls-2" d="m29.99,7.25S23.87,1,16.33,1c-7.54,0-13.65,6.25-13.65,6.25,0,0,6.11,6.44,13.65,6.44,7.54,0,13.65-6.44,13.65-6.44Z"/></svg>