<?xml version="1.0" encoding="UTF-8"?><svg id="Layer_1" xmlns="http://www.w3.org/2000/svg" viewBox="0 0 484.9 306.23"><defs><style>.cls-1{fill:#231f20;}</style></defs><path className="cls-1" d="m17.62,51.24h33.1l8.96,22.76h6.07L37.2,1.69h-5.67L2.45,74h6.1l9.06-22.76Zm1.92-5.08l14.9-37.94,14.36,37.94h-29.27Z"/><polygon className="cls-1" points="76.19 10.49 102.64 74 107.92 74 134.07 10.52 134.07 74 139.76 74 139.76 1.69 132.39 1.69 105.28 66.99 77.88 1.69 70.54 1.69 70.54 74 76.19 74 76.19 10.49"/><polygon className="cls-1" points="202.52 68.91 158.64 68.91 158.64 39.02 199.42 39.02 199.42 33.92 158.64 33.92 158.64 6.78 202 6.78 202 1.69 152.96 1.69 152.96 74 202.52 74 202.52 68.91"/><path className="cls-1" d="m218.11,41.69h24.62c12.79,0,15.28,6.01,16.03,11.86.28,2.42.27,5.05.25,7.59-.04,4.76-.07,9.26,1.73,12.52l.19.34h6.6l-.81-1.06c-1.85-2.41-1.92-6.92-1.98-11.69-.03-2.31-.07-4.69-.28-7.04-.58-6.1-2.45-13.18-11.63-15.36,8.1-2.44,13.04-9.2,13.04-18.22,0-12.4-8-18.95-23.13-18.95h-30.33v72.31h5.7v-32.31Zm0-34.91h24.62c5.23,0,17.39,1.39,17.39,14.16,0,13.63-10.9,15.66-17.39,15.66h-24.62V6.78Z"/><rect className="cls-1" x="277.95" y="1.69" width="5.69" height="72.31"/><path className="cls-1" d="m328.64,75.71c15.96,0,28.75-12.58,30.38-29.91l.07-.72h-5.73l-.04.62c-.82,13.73-11.89,24.9-24.68,24.9-16.94,0-28.76-13.47-28.76-32.75s11.82-32.74,28.76-32.74c12.3,0,21.76,7.44,23.52,18.54l.08.55h5.64l-.06-.71c-.02-.24-3.23-23.48-29.18-23.48-20.62,0-34.46,15.21-34.46,37.85s13.85,37.86,34.46,37.86Z"/><path className="cls-1" d="m374.25,51.24h33.09l8.96,22.76h6.09L393.84,1.69h-5.69l-29.04,72.31h6.08l9.06-22.76Zm1.91-5.08l14.92-37.98,14.38,37.98h-29.31Z"/><polygon className="cls-1" points="433.53 9.55 477.85 74 484.04 74 484.04 1.69 478.35 1.69 478.35 65.67 434.31 1.69 427.86 1.69 427.86 74 433.53 74 433.53 9.55"/><path className="cls-1" d="m3.97,177.38h13.44l2.95-13.56h16.99l2.97,13.56h13.42l-16.91-63.96h-15.92L3.97,177.38Zm24.81-52.85h.17l6.17,28.74h-12.52l6.18-28.74Z"/><path className="cls-1" d="m58.65,113.42v63.96h20.33c17.09,0,21.96-10.24,21.96-32.89,0-18.77-3.21-31.07-21.15-31.07h-21.14Zm29.38,31.42c0,17.39-1.78,23.02-10.76,23.02h-5.71v-44.95h5.45c9.85,0,11.01,7.44,11.01,21.93Z"/><polygon className="cls-1" points="126.75 160.73 117.7 113.42 103.91 113.42 118.61 177.38 135.15 177.38 149.88 113.42 136.51 113.42 127.01 160.73 126.75 160.73"/><polygon className="cls-1" points="192.15 123.98 192.15 113.42 156.44 113.42 156.44 177.38 193.06 177.38 193.06 166.81 169.32 166.81 169.32 149.6 190.83 149.6 190.83 139.02 169.32 139.02 169.32 123.98 192.15 123.98"/><path className="cls-1" d="m242.16,129.89c0-10.92-6.45-16.47-16.99-16.47h-23.83v63.96h12.91v-27.06h6.9c5.2,0,7.41,3.04,7.59,8.06l.37,12.28c.09,2.48.36,4.91,1.59,6.72h14.02v-.55c-2.44-1.25-2.81-4.76-2.89-11.47-.16-13.53-1.53-18.36-10.29-19.52v-.19c7.25-1.51,10.63-7.24,10.63-15.75Zm-22.55,11.49h-5.36v-18.47h6.06c5.84,0,8.94,2.95,8.94,8.85,0,6.9-3.48,9.61-9.64,9.61Z"/><polygon className="cls-1" points="273.92 177.38 273.92 123.98 287.87 123.98 287.87 113.42 247.04 113.42 247.04 123.98 261.02 123.98 261.02 177.38 273.92 177.38"/><rect className="cls-1" x="295.86" y="113.42" width="12.9" height="63.96"/><path className="cls-1" d="m316.53,157.39v2.57c0,11.85,5.74,18.65,20.31,18.65s22.21-6.11,22.21-19.61c0-7.78-2.5-12.72-12.16-16.93l-9.97-4.28c-5.46-2.34-6.62-4.77-6.62-8.69s1.52-7.43,7.37-7.43c4.93,0,6.96,3.45,6.96,9.49h12.34v-1.79c0-12.29-8.31-17.2-19.77-17.2-12.18,0-19.78,6.37-19.78,18.81,0,10.65,5.29,15.4,16.73,19.33,8.52,2.95,11.48,5.12,11.48,10.94,0,5.37-3.77,7.85-7.7,7.85-6.82,0-8.51-3.83-8.51-9.85v-1.87h-12.89Z"/><rect className="cls-1" x="366.18" y="113.42" width="12.87" height="63.96"/><polygon className="cls-1" points="420.67 157.21 405.12 113.42 390.23 113.42 390.23 177.38 402.04 177.38 402.04 132.59 402.21 132.59 417.97 177.38 432.66 177.38 432.66 113.42 420.83 113.42 420.83 157.21 420.67 157.21"/><path className="cls-1" d="m464.04,142.88v9.48h8.51v6.57c0,6.9-4.92,10.18-7.98,10.18-7.41,0-8.87-9.65-8.87-25.05s2.52-22.38,8.81-22.38c5.16,0,7.33,5.98,7.33,10.75h12.37c0-13.02-5.76-20.25-19.88-20.25-16.5,0-21.5,11.01-21.5,32.49s3.12,33.95,18.99,33.95c6,0,10.38-2.15,13.44-7.16h.16v5.93h9.49v-34.51h-20.86Z"/><path className="cls-1" d="m39.54,217.94L4.88,304.18h5.69l10.96-27.66h41.32l10.87,27.66h5.67l-34.05-86.24h-5.8Zm-16.32,53.98l19.19-48.78h.26l18.47,48.78H23.23Z"/><polygon className="cls-1" points="178.41 217.94 156.33 298.49 156.08 298.49 132.91 217.94 126.26 217.94 103.47 298.49 103.21 298.49 80.75 217.94 75.3 217.94 100.17 304.18 106.08 304.18 129.39 222.55 129.62 222.55 153.32 304.18 159.36 304.18 184.09 217.94 178.41 217.94"/><path className="cls-1" d="m211.77,217.94l-34.65,86.24h5.67l10.98-27.66h41.32l10.83,27.66h5.69l-34.02-86.24h-5.83Zm-16.31,53.98l19.21-48.78h.24l18.48,48.78h-37.93Z"/><path className="cls-1" d="m307.16,262.53v-.27c11.48-1.91,18.48-10.5,18.48-22.08,0-16.66-12.22-22.24-27.29-22.24h-35.99v86.24h5.32v-39.24h30.67c15.07,0,19.2,6.76,20.28,15.1.99,8.32-.97,18.19,2.28,24.13h5.93c-3.5-4.58-2.04-14.25-2.89-23.19-.86-8.92-3.98-17.04-16.79-18.46Zm-39.47-2.18v-37.8h30.67c11.59,0,21.98,4.93,21.98,17.97,0,13.9-9.44,19.83-21.98,19.83h-30.67Z"/><path className="cls-1" d="m367.81,217.94h-28.26v86.24h28c27.66,0,40.08-18.84,40.08-43.23,0-21.88-9.05-43.01-39.83-43.01Zm.25,81.66h-23.2v-77.05h22.1c12.79,0,35.38,3.15,35.38,38.4,0,29.82-18.24,38.65-34.28,38.65Z"/><path className="cls-1" d="m454.66,258.04c-14.6-3.01-29.35-5.31-29.35-19.2s13.89-18.37,23.63-18.37c15.97,0,27.09,7.37,27.66,22.13h5.34c-.84-18.97-15-26.68-33-26.68-13.61,0-28.96,6.37-28.96,22.92s14.73,19.92,29.34,22.95c14.74,3,29.46,5.56,29.46,20.17s-14.63,19.67-24.99,19.67c-17.02,0-32.12-7.13-31.03-25.93h-5.33c-.24,22.2,16.21,30.54,36.36,30.54,13.14,0,30.29-6.4,30.29-24.27s-14.7-20.91-29.44-23.91Z"/><rect className="cls-1" y="90.75" width="482.44" height="1.43"/><rect className="cls-1" y="195.57" width="482.44" height="1.43"/></svg>