<?xml version="1.0" encoding="UTF-8"?><svg id="Layer_3" xmlns="http://www.w3.org/2000/svg" viewBox="0 0 16 16"><defs><style>.cls-1{fill:#155cfb;}</style></defs><path class="cls-1" d="m5.09,4.69c-.54.71-1.37,1.13-2.24,1.13-1.57,0-2.84-1.31-2.84-2.91S1.28,0,2.84,0c.46,0,.9.11,1.31.33.35.19.66.45.91.76.02.03.02.07-.01.1l-.94.69s-.07.02-.09-.01c-.3-.35-.71-.54-1.17-.54-.86,0-1.56.71-1.56,1.59s.7,1.59,1.56,1.59c.47,0,.9-.21,1.2-.58.02-.03.06-.03.09-.01l.94.69s.04.07.01.1Z"/><path class="cls-1" d="m10.1,1.54v4.05s-.03.07-.07.07h-1.17s-.07-.03-.07-.07v-.06s-.03-.04-.05-.03c-.34.19-.71.29-1.1.29-1.23,0-2.22-.98-2.22-2.19s1-2.19,2.22-2.19c.39,0,.77.1,1.1.29.02.01.05,0,.05-.03v-.13s.03-.07.07-.07h1.17s.07.03.07.07Zm-1.3,2.06c0-.55-.39-1.01-.95-1.01s-1.02.45-1.02,1.01.46,1.01,1.02,1.01.95-.45.95-1.01Z"/><path class="cls-1" d="m13.14,4.65l-.15.99s-.03.05-.06.06c-.14,0-.53.03-.64.03,0,0-.02,0-.02,0-.71-.04-1.09-.4-1.09-1.06v-2.01s-.03-.07-.07-.07h-.43s-.07-.03-.07-.07v-.99s.03-.07.07-.07h.43s.07-.03.07-.07V.26s.03-.07.07-.07h1.17s.07.03.07.07v1.15s.03.07.07.07h.43s.07.03.07.07v.99s-.03.07-.07.07h-.43s-.07.03-.07.07c0,.35,0,1.38,0,1.39v.03c0,.13-.01.3.09.41.06.06.15.09.28.09h.23s.07.04.07.08Z"/><path class="cls-1" d="m5.09,11.35c-.54.71-1.37,1.13-2.24,1.13-1.57,0-2.84-1.31-2.84-2.91s1.28-2.91,2.84-2.91c.46,0,.9.11,1.31.33.35.19.66.45.91.76.02.03.02.07-.01.1l-.94.69s-.07.02-.09-.01c-.3-.35-.71-.54-1.17-.54-.86,0-1.56.71-1.56,1.59s.7,1.59,1.56,1.59c.47,0,.9-.21,1.2-.58.02-.03.06-.03.09-.01l.94.69s.04.07.01.1Z"/><path class="cls-1" d="m9.87,10.26c0,1.21-1,2.19-2.22,2.19s-2.22-.98-2.22-2.19,1-2.19,2.22-2.19,2.22.98,2.22,2.19Zm-1.25,0c0-.53-.43-.96-.97-.96s-.97.43-.97.96.43.96.97.96.97-.43.97-.96Z"/><path class="cls-1" d="m16,8.22l-1.09,4.05s-.03.05-.06.05h-1.22s-.05-.02-.06-.04l-.5-1.4c-.02-.06-.1-.06-.13,0l-.5,1.4s-.03.04-.06.04h-1.22s-.06-.02-.06-.05l-1.09-4.05s.02-.08.06-.08h1.17s.06.02.07.05l.42,2.06c.01.07.11.07.13,0l.74-2.08s.03-.04.06-.04h.69s.05.02.06.04l.75,2.1c.02.06.1.05.11,0l.43-2.08s.03-.05.07-.05h1.17s.08.04.06.08Z"/></svg>